<svg style="position: absolute; width: 0; height: 0;" width="0" height="0" version="1.1" xmlns="http://www.w3.org/2000/svg" xmlns:xlink="http://www.w3.org/1999/xlink">
<defs>
<symbol id="icon-clock" viewBox="0 0 1024 1024">
	<title>clock</title>
	<path class="path1" d="M512 42.667q95.667 0 182.5 37.167t149.667 100 100 149.667 37.167 182.5-37.167 182.5-100 149.667-149.667 100-182.5 37.167-182.5-37.167-149.667-100-100-149.667-37.167-182.5 37.167-182.5 100-149.667 149.667-100 182.5-37.167zM512 128q-78 0-149.167 30.5t-122.5 81.833-81.833 122.5-30.5 149.167 30.5 149.167 81.833 122.5 122.5 81.833 149.167 30.5 149.167-30.5 122.5-81.833 81.833-122.5 30.5-149.167-30.5-149.167-81.833-122.5-122.5-81.833-149.167-30.5zM512 213.333q17.667 0 30.167 12.5t12.5 30.167v238.333l115.667 115.333q12.333 12.333 12.333 30.333t-12.333 30.333-30.333 12.333-30.333-12.333l-128-128q-12.333-12.333-12.333-30.333v-256q0-17.667 12.5-30.167t30.167-12.5z"></path>
</symbol>
<symbol id="icon-map" viewBox="0 0 1024 1024">
	<title>map</title>
	<path class="path1" d="M682.667 213.333l341.333-213.333v810.667l-341.333 213.333-341.333-213.333-341.333 213.333v-810.667l341.333-213.333zM298.667 736.667v-609l-213.333 133.333v609zM640 287.333l-256-160.333v609.667l256 160v-609.333zM938.667 763.333v-609.333l-213.333 133.333v609.333z"></path>
</symbol>
<symbol id="icon-loader" viewBox="0 0 1024 1024">
	<title>loader</title>
	<path class="path1" d="M693.333 650.333q17.333 0 30 12.667l120.667 120.667q12.667 12.667 12.667 30.333 0 17.333-12.667 30t-30 12.667q-17.667 0-30.333-12.667l-120.667-120.667q-12.333-12.333-12.333-30.333 0-17.667 12.5-30.167t30.167-12.5zM331 650.333q17.667 0 30.167 12.5t12.5 30.167-12.667 30.333l-120.667 120.667q-12.667 12.667-30 12.667-17.667 0-30.167-12.5t-12.5-30.167q0-18 12.333-30.333l120.667-120.667q12.667-12.667 30.333-12.667zM85.333 469.333h170.667q17.667 0 30.167 12.5t12.5 30.167-12.5 30.167-30.167 12.5h-170.667q-17.667 0-30.167-12.5t-12.5-30.167 12.5-30.167 30.167-12.5zM512 725.333q17.667 0 30.167 12.5t12.5 30.167v170.667q0 17.667-12.5 30.167t-30.167 12.5-30.167-12.5-12.5-30.167v-170.667q0-17.667 12.5-30.167t30.167-12.5zM210.333 167.333q17.333 0 30 12.667l120.667 120.667q12.667 12.667 12.667 30 0 17.667-12.5 30.167t-30.167 12.5q-18 0-30.333-12.333l-120.667-120.667q-12.333-12.333-12.333-30.333 0-17.667 12.5-30.167t30.167-12.5zM768 469.333h170.667q17.667 0 30.167 12.5t12.5 30.167-12.5 30.167-30.167 12.5h-170.667q-17.667 0-30.167-12.5t-12.5-30.167 12.5-30.167 30.167-12.5zM512 42.667q17.667 0 30.167 12.5t12.5 30.167v170.667q0 17.667-12.5 30.167t-30.167 12.5-30.167-12.5-12.5-30.167v-170.667q0-17.667 12.5-30.167t30.167-12.5zM814 167.333q17.333 0 30 12.667t12.667 30q0 17.667-12.667 30.333l-120.667 120.667q-12.333 12.333-30 12.333-18.333 0-30.5-12.167t-12.167-30.5q0-17.667 12.333-30l120.667-120.667q12.667-12.667 30.333-12.667z"></path>
</symbol>
</defs>
</svg>
